<?xml version="1.0" encoding="utf-8"?>
<!DOCTYPE svg PUBLIC "-//W3C//DTD SVG 1.1//EN" "http://www.w3.org/Graphics/SVG/1.1/DTD/svg11.dtd">
<svg version="1.1" baseProfile="full" 
	xmlns="http://www.w3.org/2000/svg"
	xmlns:xlink="http://www.w3.org/1999/xlink"
	xmlns:ev="http://www.w3.org/2001/xml-events"
	width="37px" height="41px">
<g>
<path fill="rgb(163,163,163)" fill-rule="evenodd" d=" M13.0001 41 C5.82031 41 3.05092e-005 39.2091 3.05092e-005 37 C3.05092e-005 37 3.05092e-005 31 3.05092e-005 31 C3.05092e-005 31 26 31 26 31 C26 31 26 37 26 37 C26 39.2091 20.1797 41 13.0001 41 Z"/>
<ellipse fill="rgb(197,197,197)" cx="13" cy="31" rx="13" ry="4"/>
<ellipse fill="rgb(163,163,163)" cx="13" cy="30" rx="10" ry="2"/>
<rect x="12" y="0" width="2" height="33" fill="rgb(75,33,33)"/>
<path fill="rgb(192,11,12)" fill-rule="evenodd" d=" M13.0001 6.19781e-005 C13.0001 6.19781e-005 37.0001 10.0001 37.0001 10.0001 C37.0001 10.0001 13.0001 20.0001 13.0001 20.0001 C13.0001 20.0001 13.0001 6.19781e-005 13.0001 6.19781e-005 Z"/>
</g>
</svg>